# xmcd CD database file
#
# Track frame offsets:
#	150
#	16305
#	29088
#	42417
#	56706
#	70360
#	85763
#	100099
#	113456
#	126490
#	140592
#	154752
#	166645
#	178276
#	192264
#	205213
#	219569
#	232161
#	245154
#	259599
#	272734
#
# Disc length: 3816 seconds
#
# Revision: 0
# Processed by: cddbd v1.5.2PL0 Copyright (c) Steve Scherf et al.
# Submitted via: CDex 1.70beta2
#
DISCID=3a0ee615
DTITLE=Joe Sullivan - Giants of Jazz 1
DYEAR=1900
DGENRE=Jazz
TTITLE0=I’m Gonna Stomp Mr. Henry Lee: Eddie Condon’s Hot Shots
TTITLE1=China Boy: Red Nichols and His Five Pennies 
TTITLE2=Shim‑Me‑Sha‑Wabble: Red Nichols and His Five Pennies
TTITLE3=Oh Peter: Billy Banks and His Orchestra
TTITLE4=Spider Crawl: Billy Banks and His Orchestra
TTITLE5=Honeysuckle Rose: Joe Sullivan
TTITLE6=Gin Mill Blues: Joe Sullivan 
TTITLE7=Little Rock Getaway: Joe Sullivan 
TTITLE8=Onyx Bringdown: Joe Sullivan 
TTITLE9=In De Ruff: Joe Venuti and His Blue Six
TTITLE10=Home Cooking: Eddie Condon and His Orchestra
TTITLE11=My Little Pride and Joy: Joe Sullivan
TTITLE12=Little Rock Getaway: Joe Sullivan
TTITLE13=Just Strolling: Joe Sullivan
TTITLE14=Minor Mood: Joe Sullivan
TTITLE15=Moonburn: Bing Crosby with Georgie Stoll’s Instrumental Trio 
TTITLE16=There’ll Be Some Changes Made: Eddie Condon and His Chicagoans 
TTITLE17=The World Is Waiting for the Sunrise: Bob Crosby and His Orchestra 
TTITLE18=Till We Meet Again: Bob Crosby’s Bob Cats
TTITLE19=Singin’ the Blues: Lionel Hampton and His Orchestra
TTITLE20=Shake It and Break It: The Varsity Seven
EXTD=
EXTT0=
EXTT1=
EXTT2=
EXTT3=
EXTT4=
EXTT5=
EXTT6=
EXTT7=
EXTT8=
EXTT9=
EXTT10=
EXTT11=
EXTT12=
EXTT13=
EXTT14=
EXTT15=
EXTT16=
EXTT17=
EXTT18=
EXTT19=
EXTT20=
PLAYORDER=
